<svg width="20" height="20" viewBox="0 0 20 20" fill="none" xmlns="http://www.w3.org/2000/svg">
<rect width="20" height="20" fill="#0D0D0D"/>
<g id="inputs">
<path d="M-175 -209C-175 -217.837 -167.837 -225 -159 -225H496C504.837 -225 512 -217.837 512 -209V161C512 169.837 504.837 177 496 177H-159C-167.837 177 -175 169.837 -175 161V-209Z" fill="url(#paint0_linear_0_1)" fill-opacity="0.98"/>
<path d="M-175 -209C-175 -217.837 -167.837 -225 -159 -225H496C504.837 -225 512 -217.837 512 -209V161C512 169.837 504.837 177 496 177H-159C-167.837 177 -175 169.837 -175 161V-209Z" fill="url(#paint1_radial_0_1)" fill-opacity="0.2"/>
<g id="checkbox">
<g id="state=hovered">
<g id="Rectangle 2">
<rect width="20" height="20" rx="3" fill="white" fill-opacity="0.1"/>
<rect x="0.5" y="0.5" width="19" height="19" rx="2.5" stroke="white" stroke-opacity="0.75"/>
</g>
</g>
</g>
<path d="M-159 -224H496V-226H-159V-224ZM511 -209V161H513V-209H511ZM496 176H-159V178H496V176ZM-174 161V-209H-176V161H-174ZM-159 176C-167.284 176 -174 169.284 -174 161H-176C-176 170.389 -168.389 178 -159 178V176ZM511 161C511 169.284 504.284 176 496 176V178C505.389 178 513 170.389 513 161H511ZM496 -224C504.284 -224 511 -217.284 511 -209H513C513 -218.389 505.389 -226 496 -226V-224ZM-159 -226C-168.389 -226 -176 -218.389 -176 -209H-174C-174 -217.284 -167.284 -224 -159 -224V-226Z" fill="white" fill-opacity="0.1"/>
</g>
<defs>
<linearGradient id="paint0_linear_0_1" x1="-175" y1="177.565" x2="382.429" y2="-359.939" gradientUnits="userSpaceOnUse">
<stop/>
<stop offset="1" stop-color="#2F2F2F"/>
</linearGradient>
<radialGradient id="paint1_radial_0_1" cx="0" cy="0" r="1" gradientUnits="userSpaceOnUse" gradientTransform="translate(168.5 -24) rotate(149.596) scale(398.272 393.191)">
<stop stop-color="#7239BB"/>
<stop offset="1"/>
</radialGradient>
</defs>
</svg>
