<svg width="30" height="25" viewBox="0 0 30 25" fill="none" xmlns="http://www.w3.org/2000/svg">
<path d="M0 3.34146C0 2.04831 0.994923 1 2.22222 1H27.7778C29.0051 1 30 2.04831 30 3.34146V22.6585C30 23.9517 29.0051 25 27.7778 25H2.22222C0.994923 25 0 23.9517 0 22.6585V3.34146Z" fill="#959595"/>
<path d="M1 2.25641C1 1.01023 2.00288 0 3.24 0H26.76C27.9971 0 29 1.01023 29 2.25641V19.7436C29 20.9898 27.9971 22 26.76 22H3.24C2.00288 22 1 20.9898 1 19.7436V2.25641Z" fill="#F5F5F5"/>
<path d="M19.7436 15C19.1323 15 18.6516 14.8876 18.3013 14.6627C17.9578 14.4378 17.7174 14.1325 17.5801 13.747C17.4427 13.355 17.374 12.9052 17.374 12.3976V9.61205C17.374 9.07872 17.4427 8.61606 17.5801 8.2241C17.7174 7.83213 17.9578 7.53012 18.3013 7.31807C18.6516 7.10602 19.1323 7 19.7436 7C20.3206 7 20.7705 7.09317 21.0933 7.27952C21.423 7.45944 21.6565 7.71968 21.7939 8.06024C21.9312 8.4008 21.9999 8.79598 21.9999 9.24578V9.90121H20.5369V9.22651C20.5369 9.00803 20.5232 8.80884 20.4957 8.62892C20.4751 8.449 20.4099 8.30763 20.3 8.20482C20.1969 8.09558 20.0149 8.04096 19.7539 8.04096C19.4929 8.04096 19.3006 8.0988 19.177 8.21446C19.0602 8.32369 18.9847 8.4747 18.9503 8.66747C18.916 8.85382 18.8988 9.06586 18.8988 9.30361V12.6964C18.8988 12.9791 18.9229 13.2137 18.9709 13.4C19.019 13.5799 19.1049 13.7181 19.2285 13.8145C19.359 13.9044 19.5341 13.9494 19.7539 13.9494C20.0081 13.9494 20.1866 13.8948 20.2897 13.7855C20.3996 13.6699 20.4682 13.5189 20.4957 13.3325C20.5232 13.1462 20.5369 12.9373 20.5369 12.706V12.0024H21.9999V12.6289C21.9999 13.0916 21.9347 13.5028 21.8042 13.8626C21.6737 14.2161 21.4436 14.4956 21.1139 14.7012C20.7911 14.9004 20.3343 15 19.7436 15Z" fill="black"/>
<path d="M14.5085 15C14.0071 15 13.5881 14.91 13.2516 14.7301C12.915 14.5438 12.6609 14.2739 12.4892 13.9205C12.3174 13.5671 12.2213 13.1333 12.2007 12.6193L13.5091 12.3783C13.5229 12.6803 13.5606 12.947 13.6224 13.1783C13.6911 13.4096 13.7907 13.5896 13.9212 13.7181C14.0586 13.8402 14.2372 13.9012 14.457 13.9012C14.7042 13.9012 14.8794 13.8337 14.9824 13.6988C15.0854 13.5574 15.1369 13.3807 15.1369 13.1687C15.1369 12.8281 15.0545 12.5486 14.8897 12.3301C14.7248 12.1116 14.505 11.8932 14.2303 11.6747L13.1794 10.8072C12.8841 10.5695 12.6471 10.306 12.4686 10.0169C12.2968 9.72129 12.211 9.35823 12.211 8.92771C12.211 8.31084 12.4033 7.83534 12.7879 7.50121C13.1726 7.16707 13.698 7 14.3642 7C14.7557 7 15.082 7.05783 15.343 7.17349C15.604 7.28273 15.81 7.43695 15.9611 7.63614C16.1191 7.83534 16.2359 8.06345 16.3114 8.32048C16.387 8.57108 16.4351 8.83775 16.4557 9.12048L15.1575 9.33253C15.1438 9.08835 15.1129 8.86988 15.0648 8.67711C15.0236 8.48434 14.9446 8.33333 14.8279 8.2241C14.718 8.11486 14.5531 8.06024 14.3333 8.06024C14.1067 8.06024 13.9315 8.13092 13.8079 8.27229C13.6911 8.40723 13.6328 8.57751 13.6328 8.78313C13.6328 9.04659 13.6911 9.26506 13.8079 9.43855C13.9247 9.60562 14.0929 9.77912 14.3127 9.95904L15.3533 10.8169C15.6967 11.0867 15.9886 11.4048 16.229 11.7711C16.4763 12.1309 16.5999 12.5679 16.5999 13.0819C16.5999 13.4546 16.5106 13.7855 16.332 14.0747C16.1603 14.3639 15.9165 14.592 15.6006 14.759C15.2915 14.9197 14.9274 15 14.5085 15Z" fill="black"/>
<path d="M8 14.894V7.08673H11.5029V8.08914H9.52479V10.3349H11.0805V11.3277H9.52479V13.9108H11.5235V14.894H8Z" fill="black"/>
</svg>
