<svg width="30" height="25" viewBox="0 0 30 25" fill="none" xmlns="http://www.w3.org/2000/svg">
<g id="type=enter">
<path id="Rectangle 21" d="M0 3.34146C0 2.04831 0.994923 1 2.22222 1H27.7778C29.0051 1 30 2.04831 30 3.34146V22.6585C30 23.9517 29.0051 25 27.7778 25H2.22222C0.994923 25 0 23.9517 0 22.6585V3.34146Z" fill="#959595"/>
<path id="Rectangle 22" d="M1 2.25641C1 1.01023 2.00288 0 3.24 0H26.76C27.9971 0 29 1.01023 29 2.25641V19.7436C29 20.9898 27.9971 22 26.76 22H3.24C2.00288 22 1 20.9898 1 19.7436V2.25641Z" fill="#F5F5F5"/>
<path id="Vector (Stroke)" fill-rule="evenodd" clip-rule="evenodd" d="M20.2004 6C20.642 6 21 6.34575 21 6.77225V10.4227C21 11.1736 20.6911 11.8939 20.1413 12.4249C19.5914 12.9559 18.8457 13.2542 18.0681 13.2542H11.7301L13.2081 14.6817C13.5204 14.9833 13.5204 15.4722 13.2081 15.7738C12.8958 16.0754 12.3895 16.0754 12.0773 15.7738L9.2342 13.0281C9.08424 12.8832 9 12.6868 9 12.482C9 12.2772 9.08424 12.0808 9.2342 11.9359L12.0773 9.19017C12.3895 8.88859 12.8958 8.88859 13.2081 9.19017C13.5204 9.49175 13.5204 9.98071 13.2081 10.2823L11.7301 11.7097H18.0681C18.4215 11.7097 18.7605 11.5741 19.0104 11.3328C19.2604 11.0914 19.4008 10.764 19.4008 10.4227V6.77225C19.4008 6.34575 19.7588 6 20.2004 6Z" fill="#121212"/>
</g>
</svg>
