<svg width="20" height="21" viewBox="0 0 20 21" fill="none" xmlns="http://www.w3.org/2000/svg">
<path d="M7.49982 5.5C7.49982 6.16304 7.76321 6.79893 8.23205 7.26777C8.70089 7.73661 9.33678 8 9.99982 8C10.6629 8 11.2987 7.73661 11.7676 7.26777C12.2364 6.79893 12.4998 6.16304 12.4998 5.5C12.4998 4.83696 12.2364 4.20107 11.7676 3.73223C11.2987 3.26339 10.6629 3 9.99982 3C9.33678 3 8.70089 3.26339 8.23205 3.73223C7.76321 4.20107 7.49982 4.83696 7.49982 5.5Z" stroke="white" stroke-linecap="round" stroke-linejoin="round"/>
<path d="M5.69567 8H14.304C14.4992 7.99997 14.6881 8.06844 14.838 8.19347C14.9879 8.3185 15.0891 8.49216 15.124 8.68417L16.4882 16.1842C16.51 16.3043 16.5052 16.4277 16.4741 16.5458C16.443 16.6638 16.3863 16.7736 16.3081 16.8673C16.2299 16.961 16.132 17.0364 16.0214 17.0882C15.9108 17.1399 15.7903 17.1667 15.6682 17.1667H4.33151C4.20943 17.1667 4.08883 17.1399 3.97826 17.0882C3.86768 17.0364 3.76982 16.961 3.6916 16.8673C3.61337 16.7736 3.5567 16.6638 3.52558 16.5458C3.49446 16.4277 3.48965 16.3043 3.51151 16.1842L4.87567 8.68417C4.91061 8.49216 5.01182 8.3185 5.16168 8.19347C5.31153 8.06844 5.50051 7.99997 5.69567 8Z" stroke="white" stroke-linecap="round" stroke-linejoin="round"/>
</svg>
