<svg width="131" height="110" viewBox="0 0 131 110" fill="none" xmlns="http://www.w3.org/2000/svg">
<g id="CATCH RPG">
<path id="Vector" d="M125.631 64.7712C124.427 64.7712 123.461 64.5191 122.732 64.015C122.019 63.4951 121.497 62.7468 121.164 61.7701C120.847 60.7934 120.689 59.6197 120.689 58.2491V51.8453C120.689 50.4432 120.831 49.2538 121.116 48.277C121.417 47.2846 121.94 46.5284 122.684 46.0085C123.445 45.4886 124.498 45.2287 125.844 45.2287C127.048 45.2287 128.014 45.4335 128.743 45.8431C129.487 46.2369 130.026 46.8513 130.358 47.6863C130.691 48.5055 130.857 49.5452 130.857 50.8055V51.5144H128.339V50.9237C128.339 50.0887 128.284 49.4113 128.173 48.8914C128.062 48.3558 127.832 47.962 127.484 47.7099C127.151 47.4421 126.62 47.3082 125.892 47.3082C125.1 47.3082 124.522 47.4894 124.157 47.8517C123.809 48.214 123.587 48.7103 123.492 49.3404C123.413 49.9548 123.373 50.6559 123.373 51.4435V58.5327C123.373 59.4464 123.437 60.2105 123.564 60.8249C123.706 61.4393 123.967 61.8961 124.348 62.1954C124.728 62.4948 125.266 62.6444 125.963 62.6444C126.66 62.6444 127.199 62.479 127.579 62.1482C127.959 61.8174 128.22 61.329 128.363 60.6831C128.505 60.0372 128.577 59.2337 128.577 58.2728V56.9495H126.129V55.059H131V64.5349H129.313L129.052 62.3372C128.798 63.0461 128.402 63.629 127.864 64.0859C127.325 64.5427 126.581 64.7712 125.631 64.7712Z" fill="white"/>
<path id="Vector_2" d="M110.479 64.5349V45.3941H115.255C116.411 45.3941 117.33 45.6068 118.011 46.0322C118.708 46.4418 119.215 47.0404 119.532 47.8281C119.848 48.6158 120.007 49.5689 120.007 50.6874C120.007 51.6956 119.825 52.5699 119.46 53.3104C119.112 54.0508 118.589 54.6258 117.892 55.0354C117.195 55.4292 116.324 55.6262 115.279 55.6262H113.164V64.5349H110.479ZM113.164 53.7121H114.4C115.176 53.7121 115.786 53.6254 116.229 53.4522C116.673 53.2789 116.989 52.9795 117.179 52.5542C117.369 52.1131 117.465 51.4987 117.465 50.711C117.465 49.7973 117.393 49.0963 117.251 48.6079C117.124 48.1195 116.847 47.7808 116.419 47.5918C115.991 47.4027 115.326 47.3082 114.423 47.3082H113.164V53.7121Z" fill="white"/>
<path id="Vector_3" d="M99.0089 64.5349V45.3941H102.882C104.165 45.3941 105.226 45.5674 106.065 45.914C106.905 46.2448 107.522 46.7883 107.918 47.5445C108.33 48.2849 108.536 49.2617 108.536 50.4747C108.536 51.2151 108.457 51.8925 108.299 52.5069C108.14 53.1056 107.887 53.6176 107.538 54.0429C107.19 54.4525 106.73 54.7518 106.16 54.9409L108.893 64.5349H106.303L103.784 55.5553H101.694V64.5349H99.0089ZM101.694 53.6412H102.715C103.476 53.6412 104.093 53.5467 104.568 53.3576C105.044 53.1686 105.392 52.8456 105.614 52.3888C105.836 51.9319 105.946 51.2939 105.946 50.4747C105.946 49.3562 105.741 48.5528 105.329 48.0644C104.917 47.5603 104.101 47.3082 102.882 47.3082H101.694V53.6412Z" fill="white"/>
<path id="Vector_4" d="M81.9612 64.5349V45.3941H84.6459V53.6648H89.5877V45.3941H92.2724V64.5349H89.5877V55.5789H84.6459V64.5349H81.9612Z" fill="white"/>
<path id="Vector_5" d="M75.4066 64.7475C74.0445 64.7475 72.9832 64.464 72.223 63.8968C71.4785 63.3297 70.9558 62.5657 70.6549 61.6047C70.3698 60.6437 70.2272 59.5725 70.2272 58.3909V51.6326C70.2272 50.3408 70.3698 49.2144 70.6549 48.2534C70.9558 47.2924 71.4785 46.552 72.223 46.0321C72.9832 45.4965 74.0445 45.2287 75.4066 45.2287C76.6104 45.2287 77.5607 45.4493 78.2577 45.8904C78.9704 46.3315 79.4773 46.9616 79.7782 47.7808C80.095 48.6 80.2534 49.5846 80.2534 50.7346V52.247H77.7112V50.9C77.7112 50.1911 77.6716 49.5688 77.5924 49.0332C77.5291 48.4818 77.339 48.0565 77.0222 47.7572C76.7054 47.4578 76.1748 47.3082 75.4304 47.3082C74.6701 47.3082 74.1157 47.4736 73.7673 47.8044C73.4188 48.1195 73.1891 48.5764 73.0783 49.175C72.9832 49.7579 72.9357 50.4432 72.9357 51.2309V58.8163C72.9357 59.7772 73.0149 60.5413 73.1733 61.1084C73.3317 61.6598 73.593 62.0537 73.9573 62.29C74.3216 62.5263 74.8126 62.6444 75.4304 62.6444C76.159 62.6444 76.6817 62.4869 76.9984 62.1718C77.3152 61.841 77.5132 61.392 77.5924 60.8249C77.6716 60.2577 77.7112 59.5961 77.7112 58.8399V57.4221H80.2534V58.8399C80.2534 60.0057 80.1108 61.0375 79.8257 61.9355C79.5406 62.8177 79.0496 63.5109 78.3527 64.015C77.6558 64.5034 76.6737 64.7475 75.4066 64.7475Z" fill="white"/>
<path id="Vector_6" d="M63.803 64.5349V47.3791H60.548V45.3941H69.6476V47.3791H66.4877V64.5349H63.803Z" fill="white"/>
<path id="Vector_7" d="M50.7737 64.5349L54.8602 45.3941H57.4499L61.5601 64.5349H59.0179L58.1389 59.7143H54.2187L53.2921 64.5349H50.7737ZM54.5751 57.8002H57.7825L56.1669 49.175L54.5751 57.8002Z" fill="white"/>
<path id="Vector_8" d="M45.2643 64.7475C43.9022 64.7475 42.841 64.464 42.0807 63.8968C41.3362 63.3297 40.8136 62.5657 40.5126 61.6047C40.2275 60.6437 40.085 59.5725 40.085 58.3909V51.6326C40.085 50.3408 40.2275 49.2144 40.5126 48.2534C40.8136 47.2924 41.3362 46.552 42.0807 46.0321C42.841 45.4965 43.9022 45.2287 45.2643 45.2287C46.4681 45.2287 47.4185 45.4493 48.1154 45.8904C48.8281 46.3315 49.335 46.9616 49.6359 47.7808C49.9527 48.6 50.1111 49.5846 50.1111 50.7346V52.247H47.5689V50.9C47.5689 50.1911 47.5293 49.5688 47.4501 49.0332C47.3868 48.4818 47.1967 48.0565 46.8799 47.7572C46.5631 47.4578 46.0325 47.3082 45.2881 47.3082C44.5278 47.3082 43.9735 47.4736 43.625 47.8044C43.2765 48.1195 43.0469 48.5764 42.936 49.175C42.841 49.7579 42.7934 50.4432 42.7934 51.2309V58.8163C42.7934 59.7772 42.8726 60.5413 43.031 61.1084C43.1894 61.6598 43.4508 62.0537 43.8151 62.29C44.1794 62.5263 44.6704 62.6444 45.2881 62.6444C46.0167 62.6444 46.5394 62.4869 46.8562 62.1718C47.173 61.841 47.3709 61.392 47.4501 60.8249C47.5293 60.2577 47.5689 59.5961 47.5689 58.8399V57.4221H50.1111V58.8399C50.1111 60.0057 49.9686 61.0375 49.6834 61.9355C49.3983 62.8177 48.9073 63.5109 48.2104 64.015C47.5135 64.5034 46.5315 64.7475 45.2643 64.7475Z" fill="white"/>
<path id="Vector 1" d="M85 24.2724V36.4921L48.04 24.2724L20.74 39.5331V70.8794L48.04 86.1401L85 70.8794V86.1401L48.04 108L1 81.1907V28.8093L48.04 2L85 24.2724Z" stroke="url(#paint0_linear_70_112)" stroke-opacity="0.44" stroke-width="2"/>
</g>
<defs>
<linearGradient id="paint0_linear_70_112" x1="1" y1="55" x2="85" y2="55" gradientUnits="userSpaceOnUse">
<stop stop-color="white"/>
<stop offset="1" stop-color="white" stop-opacity="0"/>
</linearGradient>
</defs>
</svg>
